HIERARCHY
ROOT Hips
{
    OFFSET   0.000000   0.000000   0.000000
    CHANNELS 6 Xposition Yposition Zposition Zrotation Xrotation Yrotation
    JOINT Chest
    {
        OFFSET   0.000000   8.007240   0.000000
        CHANNELS 3 Zrotation Xrotation Yrotation
        JOINT Chest2
        {
            OFFSET   0.000000  22.077100   0.000000
            CHANNELS 3 Zrotation Xrotation Yrotation
            JOINT Neck
            {
                OFFSET   0.000000  23.254800   0.000000
                CHANNELS 3 Zrotation Xrotation Yrotation
                JOINT Head
                {
                    OFFSET   0.000000  14.370000   1.956600
                    CHANNELS 3 Zrotation Xrotation Yrotation
                    End Site
                    {
                        OFFSET   0.000000  19.566000   0.000000
                    }
                }
            }
            JOINT LeftCollar
            {
                OFFSET   3.911900  19.017000  -0.467064
                CHANNELS 3 Zrotation Xrotation Yrotation
                JOINT LeftShoulder
                {
                    OFFSET  10.383700   0.000000   0.000000
                    CHANNELS 3 Zrotation Xrotation Yrotation
                    JOINT LeftElbow
                    {
                        OFFSET  26.662100   0.001476   0.000517
                        CHANNELS 3 Zrotation Xrotation Yrotation
                        JOINT LeftWrist
                        {
                            OFFSET  28.869000  -0.000025  -0.000106
                            CHANNELS 3 Zrotation Xrotation Yrotation
                            JOINT LeftFinger0
                            {
                                OFFSET   2.044660  -2.323460   3.252850
                                CHANNELS 3 Zrotation Xrotation Yrotation
                                JOINT LeftFinger01
                                {
                                    OFFSET   3.088130   0.000000   0.000000
                                    CHANNELS 3 Zrotation Xrotation Yrotation
                                    JOINT LeftFinger02
                                    {
                                        OFFSET   2.639460   0.000000   0.000000
                                        CHANNELS 3 Zrotation Xrotation Yrotation
                                        End Site
                                        {
                                            OFFSET   2.582190   0.000000   0.000000
                                        }
                                    }
                                }
                            }
                            JOINT LeftFinger1
                            {
                                OFFSET   8.364480   0.000000   3.252850
                                CHANNELS 3 Zrotation Xrotation Yrotation
                                JOINT LeftFinger11
                                {
                                    OFFSET   4.646930   0.000000   0.000000
                                    CHANNELS 3 Zrotation Xrotation Yrotation
                                    JOINT LeftFinger12
                                    {
                                        OFFSET   2.323460   0.000000   0.000000
                                        CHANNELS 3 Zrotation Xrotation Yrotation
                                        End Site
                                        {
                                            OFFSET   2.273050   0.000000   0.000000
                                        }
                                    }
                                }
                            }
                            JOINT LeftFinger2
                            {
                                OFFSET   8.364490   0.000015   1.078090
                                CHANNELS 3 Zrotation Xrotation Yrotation
                                JOINT LeftFinger21
                                {
                                    OFFSET   5.111620   0.000000   0.000000
                                    CHANNELS 3 Zrotation Xrotation Yrotation
                                    JOINT LeftFinger22
                                    {
                                        OFFSET   2.788160   0.000016   0.000000
                                        CHANNELS 3 Zrotation Xrotation Yrotation
                                        End Site
                                        {
                                            OFFSET   2.727660   0.000000   0.000000
                                        }
                                    }
                                }
                            }
                            JOINT LeftFinger3
                            {
                                OFFSET   7.899780   0.000017  -1.078090
                                CHANNELS 3 Zrotation Xrotation Yrotation
                                JOINT LeftFinger31
                                {
                                    OFFSET   4.646930   0.000000   0.000000
                                    CHANNELS 3 Zrotation Xrotation Yrotation
                                    JOINT LeftFinger32
                                    {
                                        OFFSET   2.323470   0.000000   0.000000
                                        CHANNELS 3 Zrotation Xrotation Yrotation
                                        End Site
                                        {
                                            OFFSET   2.273050   0.000000   0.000000
                                        }
                                    }
                                }
                            }
                            JOINT LeftFinger4
                            {
                                OFFSET   7.435090   0.000000  -3.252850
                                CHANNELS 3 Zrotation Xrotation Yrotation
                                JOINT LeftFinger41
                                {
                                    OFFSET   3.717550   0.000000   0.000000
                                    CHANNELS 3 Zrotation Xrotation Yrotation
                                    JOINT LeftFinger42
                                    {
                                        OFFSET   1.858770   0.000000   0.000000
                                        CHANNELS 3 Zrotation Xrotation Yrotation
                                        End Site
                                        {
                                            OFFSET   1.818440   0.000000   0.000000
                                        }
                                    }
                                }
                            }
                        }
                    }
                }
            }
            JOINT RightCollar
            {
                OFFSET  -3.911900  19.017000  -0.467063
                CHANNELS 3 Zrotation Xrotation Yrotation
                JOINT RightShoulder
                {
                    OFFSET -10.383700   0.000019   0.000000
                    CHANNELS 3 Zrotation Xrotation Yrotation
                    JOINT RightElbow
                    {
                        OFFSET -26.662100   0.001175   0.000102
                        CHANNELS 3 Zrotation Xrotation Yrotation
                        JOINT RightWrist
                        {
                            OFFSET -28.869000   0.000016  -0.000079
                            CHANNELS 3 Zrotation Xrotation Yrotation
                            JOINT RightFinger0
                            {
                                OFFSET  -2.044660  -2.323490   3.252850
                                CHANNELS 3 Zrotation Xrotation Yrotation
                                JOINT RightFinger01
                                {
                                    OFFSET  -3.088140   0.000000   0.000000
                                    CHANNELS 3 Zrotation Xrotation Yrotation
                                    JOINT RightFinger02
                                    {
                                        OFFSET  -2.639460   0.000000   0.000000
                                        CHANNELS 3 Zrotation Xrotation Yrotation
                                        End Site
                                        {
                                            OFFSET  -2.582190   0.000000   0.000000
                                        }
                                    }
                                }
                            }
                            JOINT RightFinger1
                            {
                                OFFSET  -8.364480   0.000000   3.252850
                                CHANNELS 3 Zrotation Xrotation Yrotation
                                JOINT RightFinger11
                                {
                                    OFFSET  -4.646930   0.000000   0.000000
                                    CHANNELS 3 Zrotation Xrotation Yrotation
                                    JOINT RightFinger12
                                    {
                                        OFFSET  -2.323470   0.000000   0.000000
                                        CHANNELS 3 Zrotation Xrotation Yrotation
                                        End Site
                                        {
                                            OFFSET  -2.273050   0.000000   0.000000
                                        }
                                    }
                                }
                            }
                            JOINT RightFinger2
                            {
                                OFFSET  -8.364480   0.000000   1.078090
                                CHANNELS 3 Zrotation Xrotation Yrotation
                                JOINT RightFinger21
                                {
                                    OFFSET  -5.111620   0.000000   0.000000
                                    CHANNELS 3 Zrotation Xrotation Yrotation
                                    JOINT RightFinger22
                                    {
                                        OFFSET  -2.788160   0.000000   0.000000
                                        CHANNELS 3 Zrotation Xrotation Yrotation
                                        End Site
                                        {
                                            OFFSET  -2.727660   0.000000   0.000000
                                        }
                                    }
                                }
                            }
                            JOINT RightFinger3
                            {
                                OFFSET  -7.899780   0.000000  -1.078090
                                CHANNELS 3 Zrotation Xrotation Yrotation
                                JOINT RightFinger31
                                {
                                    OFFSET  -4.646930   0.000000   0.000000
                                    CHANNELS 3 Zrotation Xrotation Yrotation
                                    JOINT RightFinger32
                                    {
                                        OFFSET  -2.323470   0.000000   0.000000
                                        CHANNELS 3 Zrotation Xrotation Yrotation
                                        End Site
                                        {
                                            OFFSET  -2.273050   0.000000   0.000000
                                        }
                                    }
                                }
                            }
                            JOINT RightFinger4
                            {
                                OFFSET  -7.435090   0.000000  -3.252850
                                CHANNELS 3 Zrotation Xrotation Yrotation
                                JOINT RightFinger41
                                {
                                    OFFSET  -3.717550   0.000000   0.000000
                                    CHANNELS 3 Zrotation Xrotation Yrotation
                                    JOINT RightFinger42
                                    {
                                        OFFSET  -1.858770   0.000000   0.000000
                                        CHANNELS 3 Zrotation Xrotation Yrotation
                                        End Site
                                        {
                                            OFFSET  -1.818440   0.000000   0.000000
                                        }
                                    }
                                }
                            }
                        }
                    }
                }
            }
        }
    }
    JOINT LeftHip
    {
        OFFSET   9.783040   0.000000   0.000000
        CHANNELS 3 Zrotation Xrotation Yrotation
        JOINT LeftKnee
        {
            OFFSET   0.000032 -41.789100  -0.002222
            CHANNELS 3 Zrotation Xrotation Yrotation
            JOINT LeftAnkle
            {
                OFFSET   0.000087 -41.133200  -0.000135
                CHANNELS 3 Zrotation Xrotation Yrotation
                JOINT LeftToe
                {
                    OFFSET   0.000000  -6.358960  14.674500
                    CHANNELS 3 Zrotation Xrotation Yrotation
                    End Site
                    {
                        OFFSET   0.000000   0.000000   3.913200
                    }
                }
            }
        }
    }
    JOINT RightHip
    {
        OFFSET  -9.783040   0.000000   0.000000
        CHANNELS 3 Zrotation Xrotation Yrotation
        JOINT RightKnee
        {
            OFFSET   0.000047 -41.789100  -0.000896
            CHANNELS 3 Zrotation Xrotation Yrotation
            JOINT RightAnkle
            {
                OFFSET  -0.000117 -41.133300  -0.000248
                CHANNELS 3 Zrotation Xrotation Yrotation
                JOINT RightToe
                {
                    OFFSET   0.000000  -6.358970  14.674500
                    CHANNELS 3 Zrotation Xrotation Yrotation
                    End Site
                    {
                        OFFSET   0.000000   0.000000   3.913200
                    }
                }
            }
        }
    }
}
MOTION
Frames: 5
Frame Time:   0.016667
  0.718701  89.477800   1.693850  -2.446870  -4.089280  -1.016910   1.109540   3.294100   0.553567   2.192560   6.598180   1.045620   0.783795  -0.987444   0.014266   1.285570  -2.001750   4.783920  -5.622200   2.416400  -1.805290 -67.408800  15.538300  -5.688800  -3.666180 -13.010700  -9.850360   2.930790 -10.142800  12.255800  40.374200  30.923300 -71.659000 -17.087500   0.000000   0.000000  -3.543750   0.000000   0.000000 -35.693600   6.371310  -8.781060 -29.604500   0.001559   0.007610 -20.724900  -0.000232   0.005355 -28.770600   1.242330  -2.260930 -42.563100  -0.001993  -0.002256 -28.347000  -0.001382  -0.001662 -28.746300  -1.479990   2.695990 -41.299400   0.001356  -0.000104 -27.505400  -0.002862   0.000000 -35.306500  -1.778480   2.509210 -53.018200  -0.002582  -0.000000 -35.310100   0.000089   0.000070   8.818310  -0.015389   9.048660  68.264400  14.785100  -1.057460   0.413401   0.298980   9.953670 -14.177000 -20.372200   0.981590 -47.679100  41.273900  83.955200  16.588200   0.000139  -0.002821   3.284320   0.001885  -0.001903  34.102600   7.600250  11.048700  28.501800  -0.000497   0.009590  19.951300   0.003007   0.006904  28.395500   4.498150   8.252840  39.607800  -0.005132  -0.001143  26.374900   0.004478   0.000848  28.552800   3.604970   6.576810  40.557400   0.000462   0.000321  27.011200   0.005067   0.000416  39.057000  -0.804734  -0.991594  58.583000   0.003673   0.001527  39.024900   0.002700   0.000923   2.903790   7.519140   1.749120   0.909956   0.844875   3.864680  -2.778020  -4.018270  13.784300   0.000000   0.000000   0.000000   1.634030   3.074340  -6.893120   1.266920   4.626940  -1.345560  -4.897450  -3.253830  -0.985935  -0.000000   0.000000   0.000000
  0.715032  89.477800   1.693890  -2.447440  -4.092990  -1.024410   1.108210   3.292480   0.553665   2.189900   6.594920   1.045920   0.779828  -0.987911   0.014276   1.280470  -2.002600   4.796710  -5.622240   2.414890  -1.805280 -67.425300  15.540100  -5.678430  -3.660350 -12.978300  -9.848560   2.923020 -10.113500  12.247500  40.407700  30.970000 -71.697800 -17.038700   0.000000   0.000047  -3.519330   0.000000   0.000000 -35.688000   6.379900  -8.795010 -29.600700   0.001563   0.007628 -20.725600  -0.000243   0.005367 -28.769800   1.251180  -2.277070 -42.552600  -0.001981  -0.002240 -28.340000  -0.001403  -0.001652 -28.747500  -1.467310   2.672880 -41.287800   0.001362  -0.000065 -27.497700  -0.002880   0.000013 -35.299700  -1.762930   2.487910 -53.007000  -0.002589   0.000018 -35.302600   0.000091   0.000084   8.827760  -0.034089   9.049660  68.293000  14.784900  -1.085450   0.421581   0.313131   9.932820 -14.165000 -20.348300   0.982856 -47.683300  41.274900  83.963200  16.581000   0.000127  -0.002809   3.284320   0.001880  -0.001884  34.100000   7.606420  11.059200  28.501800  -0.000498   0.009581  19.951300   0.003009   0.006897  28.393500   4.504990   8.265620  39.605200  -0.005132  -0.001152  26.374400   0.004474   0.000833  28.552200   3.604750   6.586730  40.552100   0.000462   0.000311  27.007700   0.005066   0.000407  39.057000  -0.805096  -0.991996  58.589500   0.003668   0.001513  39.024900   0.002692   0.000916   2.903270   7.528090   1.749140   0.914952   0.842588   3.864300  -2.781550  -4.020760  13.793800   0.000000   0.000000   0.000000   1.633760   3.075000  -6.893180   1.266620   4.629990  -1.339760  -4.898770  -3.255030  -0.982061   0.000000   0.000000   0.000000
  0.708789  89.477700   1.693960  -2.448480  -4.100220  -1.038070   1.105860   3.289480   0.553815   2.185180   6.588900   1.046410   0.771671  -0.991185   0.014287   1.268840  -2.008710   4.824170  -5.622380   2.410150  -1.805260 -67.450700  15.542000  -5.662660  -3.650210 -12.925700  -9.842990   2.915250 -10.084200  12.239300  40.441300  31.016600 -71.736700 -16.989800   0.000000   0.000093  -3.494920   0.000000  -0.000000 -35.678800   6.388480  -8.808950 -29.594800   0.001575   0.007674 -20.726300  -0.000270   0.005400 -28.768900   1.260030  -2.293210 -42.542000  -0.001951  -0.002201 -28.333000  -0.001460  -0.001626 -28.748700  -1.454620   2.649760 -41.276300   0.001377  -0.000000 -27.490000  -0.002938   0.000060 -35.292900  -1.747370   2.466620 -52.995700  -0.002609   0.000060 -35.295100   0.000093   0.000119   8.847210  -0.068887   9.056690  68.335300  14.784600  -1.130230   0.434580   0.337290   9.895620 -14.145700 -20.308700   0.987811 -47.694500  41.276700  83.978200  16.568600   0.000097  -0.002791   3.284320   0.001860  -0.001840  34.096300   7.614400  11.074900  28.501800  -0.000500   0.009558  19.951300   0.003018   0.006875  28.391600   4.511840   8.278410  39.596000  -0.005133  -0.001173  26.370900   0.004466   0.000794  28.551600   3.604470   6.596660  40.539000   0.000461   0.000285  26.999000   0.005059   0.000387  39.057000  -0.805458  -0.992398  58.596000   0.003652   0.001476  39.024900   0.002670   0.000900   2.902640   7.540760   1.749050   0.922704   0.840301   3.863920  -2.787520  -4.026370  13.808700   0.000000   0.000000   0.000000   1.633400   3.076450  -6.893290   1.266360   4.637540  -1.331050  -4.902270  -3.259290  -0.974723  -0.000000   0.000000   0.000000
  0.703593  89.477700   1.694070  -2.449540  -4.108120  -1.052120   1.103750   3.286290   0.553861   2.180980   6.582520   1.046590   0.761570  -0.999006   0.014271   1.252480  -2.024280   4.861140  -5.624930   2.402340  -1.809700 -67.468100  15.532000  -5.653080  -3.613010 -12.876800  -9.829430   2.877570 -10.109200  12.250300  40.370300  30.944700 -71.691600 -17.028300  -0.000028   0.000047  -3.514200   0.000000   0.000000 -35.680800   6.349420  -8.755490 -29.592300   0.001593   0.007747 -20.720900  -0.000310   0.005452 -28.771700   1.223300  -2.226360 -42.566000  -0.001903  -0.002145 -28.348900  -0.001549  -0.001589 -28.745900  -1.485290   2.705600 -41.287000   0.001397   0.000048 -27.497100  -0.003047   0.000155 -35.309100  -1.784820   2.518160 -53.022500  -0.002640   0.000122 -35.313000   0.000093   0.000171   8.871640  -0.105304   9.077500  68.358100  14.784400  -1.163790   0.445580   0.363149   9.861440 -14.132400 -20.278500   0.999128 -47.717400  41.288200  83.995900  16.554700   0.000061  -0.002783   3.278660   0.001811  -0.001776  34.086100   7.616410  11.084800  28.494400  -0.000503   0.009522  19.946100   0.003037   0.006839  28.391900   4.511160   8.277440  39.578800  -0.005138  -0.001201  26.360200   0.004452   0.000731  28.551900   3.604410   6.592140  40.520200   0.000466   0.000241  26.986400   0.005038   0.000360  39.050700  -0.803270  -0.989972  58.586500   0.003627   0.001420  39.018600   0.002637   0.000876   2.902780   7.543650   1.747560   0.927173   0.850618   3.864810  -2.793290  -4.036380  13.819400   0.000000   0.000000  -0.000000   1.633350   3.078880  -6.893380   1.266730   4.647850  -1.325350  -4.908080  -3.267470  -0.966066   0.000000   0.000000   0.000000
  0.698112  89.477600   1.694140  -2.450610  -4.117340  -1.066140   1.101320   3.283130   0.553982   2.176120   6.576190   1.047130   0.750274  -1.010650   0.014255   1.233780  -2.048060   4.901250  -5.632640   2.390490  -1.824680 -67.483100  15.517400  -5.644930  -3.577760 -12.848600  -9.809020   2.839910 -10.134200  12.261300  40.299500  30.872700 -71.646700 -17.066900  -0.000070   0.000000  -3.533490  -0.000000   0.000000 -35.683100   6.310350  -8.702050 -29.588500   0.001616   0.007838 -20.712000  -0.000362   0.005518 -28.774500   1.186570  -2.159520 -42.589900  -0.001843  -0.002075 -28.364900  -0.001663  -0.001543 -28.742900  -1.515950   2.761430 -41.297700   0.001419   0.000106 -27.504300  -0.003183   0.000267 -35.325200  -1.822270   2.569710 -53.049300  -0.002678   0.000198 -35.330900   0.000092   0.000234   8.898400  -0.144160   9.104030  68.375100  14.784300  -1.191770   0.451911   0.379028   9.822930 -14.117900 -20.246100   1.011100 -47.733300  41.298900  84.006700  16.546000   0.000000  -0.002774   3.273010   0.001761  -0.001700  34.067700   7.616610  11.089600  28.479500  -0.000508   0.009477  19.935600   0.003063   0.006793  28.392400   4.509970   8.275730  39.554200  -0.005143  -0.001236  26.343100   0.004435   0.000652  28.552200   3.604410   6.587610  40.494900   0.000470   0.000187  26.969600   0.005013   0.000326  39.034700  -0.798224  -0.984375  58.562300   0.003595   0.001352  39.002500   0.002595   0.000846   2.903210   7.548950   1.744610   0.930866   0.860933   3.867500  -2.797430  -4.043200  13.828900  -0.000000   0.000000   0.000000   1.633380   3.080540  -6.893430   1.267250   4.662910  -1.322270  -4.914910  -3.278250  -0.958222   0.000000   0.000000   0.000000
